<svg height="512" viewBox="0 0 192 192" width="512" xmlns="http://www.w3.org/2000/svg"><path d="m164.686 8h22.627v16h-22.627z" transform="matrix(.707 -.707 .707 .707 40.235 129.137)"/><path d="m176 32h16v16h-16z"/><path d="m120 68.671v-12.671a8 8 0 0 0 -8-8h-32a8 8 0 0 0 -8 8v12.671a64 64 0 1 0 48 0zm0 83.329a8 8 0 1 1 8-8 8 8 0 0 1 -8 8z"/><path d="m150.845 36.422c-.885 1.769-2.39 3.578-6.845 3.578-3.362 0-5.561-3.139-9.775-10.3-5.39-9.158-12.77-21.7-30.225-21.7-9.52 0-14.6 4.559-17.194 8.383-4.395 6.491-4.587 15.492-3.4 23.617h16.258c-1.176-6.13-1.414-11.981.391-14.646.274-.406.917-1.354 3.945-1.354 7.92 0 11.243 4.992 16.436 13.814 4.764 8.103 10.701 18.186 23.564 18.186 17.608 0 24-14.353 24-24h-16a12.319 12.319 0 0 1 -1.155 4.422z"/></svg>